<svg width="138" height="23" viewBox="0 0 138 23" fill="none" xmlns="http://www.w3.org/2000/svg">
<path d="M0.656 23V0.599998H4.944L14.48 16.408H12.208L21.584 0.599998H25.84L25.904 23H21.04L21.008 8.056H21.904L14.416 20.632H12.08L4.432 8.056H5.52V23H0.656ZM28.2745 23L38.2585 0.599998H43.3785L53.3945 23H47.9545L39.7625 3.224H41.8105L33.5865 23H28.2745ZM33.2665 18.2L34.6425 14.264H46.1625L47.5705 18.2H33.2665ZM55.7185 23V0.599998H65.8945C68.3265 0.599998 70.4705 1.06933 72.3265 2.008C74.1825 2.92533 75.6332 4.216 76.6785 5.88C77.7238 7.544 78.2465 9.51733 78.2465 11.8C78.2465 14.0613 77.7238 16.0347 76.6785 17.72C75.6332 19.384 74.1825 20.6853 72.3265 21.624C70.4705 22.5413 68.3265 23 65.8945 23H55.7185ZM60.9025 18.744H65.6385C67.1318 18.744 68.4225 18.4667 69.5105 17.912C70.6198 17.336 71.4732 16.5253 72.0705 15.48C72.6892 14.4347 72.9985 13.208 72.9985 11.8C72.9985 10.3707 72.6892 9.144 72.0705 8.12C71.4732 7.07467 70.6198 6.27467 69.5105 5.72C68.4225 5.144 67.1318 4.856 65.6385 4.856H60.9025V18.744ZM86.924 9.624H97.708V13.656H86.924V9.624ZM87.308 18.84H99.5V23H82.156V0.599998H99.084V4.76H87.308V18.84Z" fill="#F3F3F3"/>
<path d="M112.992 23V0.599998H115.36V23H112.992ZM127 23V2.648H119.128V0.599998H137.24V2.648H129.368V23H127Z" fill="#0CB7B5"/>
</svg>
