<svg width="174" height="61" viewBox="0 0 174 61" fill="none" xmlns="http://www.w3.org/2000/svg">
<path d="M46.5396 40.4349C43.2532 45.4417 37.5888 48.7481 31.1522 48.7481C20.9942 48.7481 12.7595 40.5134 12.7595 30.3553C12.7595 20.1973 20.9942 11.9626 31.1522 11.9626C37.4124 11.9626 42.942 15.0902 46.264 19.8679L54.7856 11.4281C49.2368 4.50856 40.7119 0.078125 31.1522 0.078125C14.4306 0.078125 0.875 13.6337 0.875 30.3553C0.875 47.077 14.4306 60.6326 31.1522 60.6326C40.8627 60.6326 49.5055 56.0613 55.046 48.9532L46.5396 40.4349Z" fill="url(#paint0_linear_2068_5122)"/>
<path fill-rule="evenodd" clip-rule="evenodd" d="M45.3173 30.4985C45.3173 38.3764 38.9311 44.7627 31.0532 44.7627C23.1753 44.7627 16.7891 38.3764 16.7891 30.4985C16.7891 22.6206 23.1753 16.2344 31.0532 16.2344C38.9311 16.2344 45.3173 22.6206 45.3173 30.4985ZM31.0276 34.8056C33.42 34.8056 35.3594 32.8662 35.3594 30.4737C35.3594 28.0813 33.42 26.1419 31.0276 26.1419C28.6351 26.1419 26.6957 28.0813 26.6957 30.4737C26.6957 32.8662 28.6351 34.8056 31.0276 34.8056ZM31.0276 38.4082C35.4097 38.4082 38.962 34.8558 38.962 30.4737C38.962 26.0917 35.4097 22.5393 31.0276 22.5393C26.6455 22.5393 23.0931 26.0917 23.0931 30.4737C23.0931 34.8558 26.6455 38.4082 31.0276 38.4082ZM40.153 25.9987C41.1478 25.9987 41.9543 25.1922 41.9543 24.1974C41.9543 23.2026 41.1478 22.3961 40.153 22.3961C39.1581 22.3961 38.3517 23.2026 38.3517 24.1974C38.3517 25.1922 39.1581 25.9987 40.153 25.9987Z" fill="white"/>
<path d="M56.8977 38.6324C55.7972 38.6324 54.8244 38.4359 53.9794 38.0428C53.1343 37.6301 52.476 37.0701 52.0044 36.3626C51.5327 35.6551 51.2969 34.8395 51.2969 33.9159C51.2969 32.442 51.8471 31.3022 52.9477 30.4964C54.0678 29.671 55.6007 29.2583 57.5463 29.2583C58.8826 29.2583 60.1403 29.4647 61.3195 29.8774V28.7572C61.3195 27.8729 61.0443 27.2047 60.4941 26.7527C59.9438 26.3007 59.1381 26.0747 58.0769 26.0747C57.4283 26.0747 56.7307 26.1828 55.9839 26.399C55.2371 26.5955 54.3724 26.9099 53.3898 27.3423L51.9159 24.365C53.1343 23.8147 54.2938 23.402 55.3943 23.1269C56.5145 22.8518 57.6347 22.7142 58.7549 22.7142C60.8183 22.7142 62.42 23.2153 63.5598 24.2176C64.7193 25.2002 65.299 26.5955 65.299 28.4035V38.3671H61.3195V37.2764C60.6906 37.7481 60.0126 38.092 59.2855 38.3081C58.5583 38.5243 57.7624 38.6324 56.8977 38.6324ZM55.129 33.8275C55.129 34.417 55.3845 34.8887 55.8955 35.2424C56.4064 35.5765 57.0844 35.7435 57.9295 35.7435C58.5976 35.7435 59.2167 35.6649 59.7866 35.5077C60.3565 35.3308 60.8675 35.0754 61.3195 34.7413V32.5009C60.8282 32.3044 60.3172 32.157 59.7866 32.0588C59.256 31.9605 58.6861 31.9114 58.0769 31.9114C57.1532 31.9114 56.4261 32.0882 55.8955 32.442C55.3845 32.7761 55.129 33.2379 55.129 33.8275Z" fill="white"/>
<path d="M68.3555 38.3671V23.009H72.394V24.1881C73.4946 23.2055 74.8309 22.7142 76.4031 22.7142C77.4053 22.7142 78.2995 22.9205 79.0856 23.3332C79.8717 23.7263 80.5202 24.2864 81.0312 25.0135C81.66 24.2667 82.397 23.6968 83.242 23.3037C84.1067 22.9107 85.0598 22.7142 86.1014 22.7142C87.2609 22.7142 88.273 22.9795 89.1377 23.5101C90.022 24.0211 90.7098 24.7384 91.2011 25.662C91.7121 26.566 91.9676 27.6272 91.9676 28.8456V38.3671H87.9585V29.4352C87.9585 28.433 87.6932 27.6469 87.1626 27.077C86.632 26.4874 85.9245 26.1926 85.0402 26.1926C84.431 26.1926 83.8709 26.3203 83.3599 26.5758C82.8686 26.8313 82.4461 27.2145 82.0924 27.7255C82.112 27.9023 82.1317 28.0792 82.1513 28.2561C82.171 28.433 82.1808 28.6295 82.1808 28.8456V38.3671H78.1423V29.4352C78.1423 28.433 77.877 27.6469 77.3464 27.077C76.8354 26.4874 76.1378 26.1926 75.2534 26.1926C74.6442 26.1926 74.094 26.3105 73.6026 26.5463C73.131 26.7822 72.7281 27.1359 72.394 27.6076V38.3671H68.3555Z" fill="white"/>
<path d="M100.609 38.1821C99.1945 38.1821 97.8877 38.0052 96.6889 37.6515C95.4901 37.2781 94.4485 36.7475 93.5642 36.0596L95.5687 33.3771C96.4531 33.9667 97.2981 34.4089 98.1038 34.7036C98.9292 34.9984 99.7448 35.1458 100.551 35.1458C101.455 35.1458 102.172 34.9984 102.702 34.7036C103.253 34.3892 103.528 33.9863 103.528 33.495C103.528 33.102 103.371 32.7876 103.056 32.5517C102.761 32.3159 102.28 32.1489 101.612 32.0506L98.6639 31.6084C97.1311 31.3726 95.9716 30.8813 95.1855 30.1345C94.3994 29.3681 94.0064 28.3658 94.0064 27.1278C94.0064 26.1255 94.2619 25.2706 94.7728 24.5632C95.3034 23.836 96.0404 23.2759 96.9837 22.8829C97.9466 22.4702 99.0864 22.2639 100.403 22.2639C101.523 22.2639 102.614 22.4211 103.675 22.7355C104.756 23.0499 105.768 23.5314 106.711 24.1799L104.766 26.8035C103.921 26.2729 103.115 25.8897 102.349 25.6538C101.582 25.418 100.806 25.3001 100.02 25.3001C99.2928 25.3001 98.7032 25.4377 98.2512 25.7128C97.8189 25.9879 97.6027 26.3515 97.6027 26.8035C97.6027 27.2162 97.7599 27.5404 98.0744 27.7763C98.3888 28.0121 98.9292 28.1791 99.6957 28.2774L102.614 28.7196C104.147 28.9357 105.316 29.4271 106.122 30.1935C106.928 30.9403 107.331 31.913 107.331 33.1118C107.331 34.0944 107.036 34.969 106.446 35.7354C105.857 36.4822 105.061 37.0816 104.058 37.5336C103.056 37.9659 101.907 38.1821 100.609 38.1821Z" fill="white"/>
<path d="M117.002 38.1821C115.469 38.1821 114.074 37.8283 112.816 37.1209C111.578 36.4134 110.596 35.4603 109.868 34.2615C109.141 33.0627 108.778 31.7165 108.778 30.223C108.778 28.7294 109.122 27.3832 109.809 26.1845C110.517 24.9857 111.47 24.0325 112.669 23.3251C113.868 22.6176 115.204 22.2639 116.678 22.2639C118.152 22.2639 119.459 22.6274 120.598 23.3545C121.738 24.0817 122.632 25.0643 123.281 26.3024C123.949 27.5404 124.283 28.9456 124.283 30.5177V31.579H112.905C113.082 32.1882 113.366 32.7384 113.76 33.2297C114.172 33.721 114.673 34.1043 115.263 34.3794C115.872 34.6545 116.521 34.7921 117.208 34.7921C117.896 34.7921 118.525 34.684 119.095 34.4678C119.685 34.2516 120.186 33.947 120.598 33.554L123.251 35.9712C122.308 36.7376 121.335 37.2977 120.333 37.6515C119.351 38.0052 118.24 38.1821 117.002 38.1821ZM112.846 28.6901H120.304C120.166 28.0809 119.911 27.5503 119.537 27.0983C119.184 26.6266 118.751 26.2631 118.24 26.0076C117.749 25.7325 117.199 25.5949 116.589 25.5949C115.961 25.5949 115.391 25.7226 114.88 25.9781C114.369 26.2336 113.936 26.5971 113.583 27.0688C113.249 27.5208 113.003 28.0612 112.846 28.6901Z" fill="white"/>
<path d="M126.758 37.8873V22.5292H130.796V23.7967C131.956 22.7552 133.39 22.2344 135.1 22.2344C136.299 22.2344 137.35 22.4997 138.254 23.0303C139.178 23.5412 139.895 24.2585 140.406 25.1822C140.917 26.0862 141.172 27.1474 141.172 28.3658V37.8873H137.134V28.9554C137.134 27.9531 136.849 27.1671 136.279 26.5971C135.709 26.0076 134.933 25.7128 133.95 25.7128C133.262 25.7128 132.653 25.8504 132.123 26.1255C131.592 26.381 131.15 26.7544 130.796 27.2457V37.8873H126.758Z" fill="white"/>
<path d="M149.98 38.1821C148.565 38.1821 147.258 38.0052 146.059 37.6515C144.86 37.2781 143.819 36.7475 142.934 36.0596L144.939 33.3771C145.823 33.9667 146.668 34.4089 147.474 34.7036C148.299 34.9984 149.115 35.1458 149.921 35.1458C150.825 35.1458 151.542 34.9984 152.073 34.7036C152.623 34.3892 152.898 33.9863 152.898 33.495C152.898 33.102 152.741 32.7876 152.426 32.5517C152.132 32.3159 151.65 32.1489 150.982 32.0506L148.034 31.6084C146.501 31.3726 145.342 30.8813 144.556 30.1345C143.77 29.3681 143.377 28.3658 143.377 27.1278C143.377 26.1255 143.632 25.2706 144.143 24.5632C144.674 23.836 145.411 23.2759 146.354 22.8829C147.317 22.4702 148.457 22.2639 149.773 22.2639C150.894 22.2639 151.984 22.4211 153.045 22.7355C154.126 23.0499 155.138 23.5314 156.082 24.1799L154.136 26.8035C153.291 26.2729 152.485 25.8897 151.719 25.6538C150.952 25.418 150.176 25.3001 149.39 25.3001C148.663 25.3001 148.073 25.4377 147.621 25.7128C147.189 25.9879 146.973 26.3515 146.973 26.8035C146.973 27.2162 147.13 27.5404 147.445 27.7763C147.759 28.0121 148.299 28.1791 149.066 28.2774L151.984 28.7196C153.517 28.9357 154.686 29.4271 155.492 30.1935C156.298 30.9403 156.701 31.913 156.701 33.1118C156.701 34.0944 156.406 34.969 155.816 35.7354C155.227 36.4822 154.431 37.0816 153.429 37.5336C152.426 37.9659 151.277 38.1821 149.98 38.1821Z" fill="white"/>
<path d="M166.372 38.1821C164.839 38.1821 163.444 37.8283 162.186 37.1209C160.948 36.4134 159.966 35.4603 159.239 34.2615C158.511 33.0627 158.148 31.7165 158.148 30.223C158.148 28.7294 158.492 27.3832 159.18 26.1845C159.887 24.9857 160.84 24.0325 162.039 23.3251C163.238 22.6176 164.574 22.2639 166.048 22.2639C167.522 22.2639 168.829 22.6274 169.969 23.3545C171.108 24.0817 172.003 25.0643 172.651 26.3024C173.319 27.5404 173.653 28.9456 173.653 30.5177V31.579H162.275C162.452 32.1882 162.737 32.7384 163.13 33.2297C163.542 33.721 164.044 34.1043 164.633 34.3794C165.242 34.6545 165.891 34.7921 166.579 34.7921C167.266 34.7921 167.895 34.684 168.465 34.4678C169.055 34.2516 169.556 33.947 169.969 33.554L172.622 35.9712C171.678 36.7376 170.706 37.2977 169.703 37.6515C168.721 38.0052 167.61 38.1821 166.372 38.1821ZM162.216 28.6901H169.674C169.536 28.0809 169.281 27.5503 168.907 27.0983C168.554 26.6266 168.121 26.2631 167.61 26.0076C167.119 25.7325 166.569 25.5949 165.96 25.5949C165.331 25.5949 164.761 25.7226 164.25 25.9781C163.739 26.2336 163.307 26.5971 162.953 27.0688C162.619 27.5208 162.373 28.0612 162.216 28.6901Z" fill="white"/>
<defs>
<linearGradient id="paint0_linear_2068_5122" x1="43.6513" y1="87.5265" x2="-16.4048" y2="43.8381" gradientUnits="userSpaceOnUse">
<stop stop-color="#A6B5F0"/>
<stop offset="0.176584" stop-color="#8B9EE7"/>
<stop offset="0.494132" stop-color="#6685FF"/>
<stop offset="0.679826" stop-color="#4999DE"/>
<stop offset="0.916246" stop-color="#24B3B3"/>
</linearGradient>
</defs>
</svg>
